<svg width="1440" height="900" viewBox="0 0 1440 900" fill="none" xmlns="http://www.w3.org/2000/svg">
<rect width="1442" height="900" transform="matrix(1 0 0 -1 0 900)" fill="url(#paint0_linear_341_61631)"/>
<mask id="mask0_341_61631" style="mask-type:luminance" maskUnits="userSpaceOnUse" x="0" y="0" width="1442" height="900">
<rect width="1442" height="900" transform="matrix(1 0 0 -1 0 900)" fill="white"/>
</mask>
<g mask="url(#mask0_341_61631)">
<ellipse cx="1055.37" cy="532.208" rx="152.12" ry="152.127" fill="url(#paint1_linear_341_61631)"/>
<ellipse cx="1374.07" cy="494.973" rx="247.794" ry="247.806" fill="url(#paint2_linear_341_61631)"/>
<ellipse cx="392.76" cy="532.466" rx="126.901" ry="126.906" fill="url(#paint3_linear_341_61631)"/>
<ellipse cx="88.2937" cy="462.221" rx="194.856" ry="194.865" fill="url(#paint4_linear_341_61631)" fill-opacity="0.5"/>
<ellipse cx="549.546" cy="590.33" rx="77.46" ry="77.4636" fill="url(#paint5_linear_341_61631)"/>
<ellipse cx="670.869" cy="646.328" rx="77.46" ry="77.4636" fill="url(#paint6_linear_341_61631)"/>
<ellipse cx="663.359" cy="578.744" rx="77.46" ry="77.4636" fill="url(#paint7_linear_341_61631)"/>
</g>
<defs>
<linearGradient id="paint0_linear_341_61631" x1="0" y1="0" x2="0" y2="900" gradientUnits="userSpaceOnUse">
<stop stop-color="white"/>
<stop offset="1" stop-color="#D5E6FF"/>
</linearGradient>
<linearGradient id="paint1_linear_341_61631" x1="903.932" y1="381.447" x2="903.932" y2="684.336" gradientUnits="userSpaceOnUse">
<stop stop-color="white" stop-opacity="0.493644"/>
<stop offset="1" stop-color="white" stop-opacity="0.01"/>
</linearGradient>
<linearGradient id="paint2_linear_341_61631" x1="1127.39" y1="249.391" x2="1127.39" y2="742.778" gradientUnits="userSpaceOnUse">
<stop stop-color="white" stop-opacity="0.493644"/>
<stop offset="1" stop-color="white" stop-opacity="0.01"/>
</linearGradient>
<linearGradient id="paint3_linear_341_61631" x1="266.429" y1="406.698" x2="266.429" y2="659.372" gradientUnits="userSpaceOnUse">
<stop stop-color="white" stop-opacity="0.493644"/>
<stop offset="1" stop-color="white" stop-opacity="0.01"/>
</linearGradient>
<linearGradient id="paint4_linear_341_61631" x1="-105.688" y1="269.105" x2="-105.688" y2="657.087" gradientUnits="userSpaceOnUse">
<stop stop-color="white" stop-opacity="0.493644"/>
<stop offset="1" stop-color="white" stop-opacity="0.01"/>
</linearGradient>
<linearGradient id="paint5_linear_341_61631" x1="472.434" y1="513.562" x2="472.434" y2="667.793" gradientUnits="userSpaceOnUse">
<stop stop-color="white" stop-opacity="0.493644"/>
<stop offset="1" stop-color="white" stop-opacity="0.01"/>
</linearGradient>
<linearGradient id="paint6_linear_341_61631" x1="593.757" y1="569.56" x2="593.757" y2="723.791" gradientUnits="userSpaceOnUse">
<stop stop-color="white" stop-opacity="0.493644"/>
<stop offset="1" stop-color="white" stop-opacity="0.01"/>
</linearGradient>
<linearGradient id="paint7_linear_341_61631" x1="586.247" y1="501.976" x2="586.247" y2="656.208" gradientUnits="userSpaceOnUse">
<stop stop-color="white" stop-opacity="0.493644"/>
<stop offset="1" stop-color="white" stop-opacity="0.01"/>
</linearGradient>
</defs>
</svg>
